# xmcd CD database file
#
# Track frame offsets:
#	150
#	20060
#	33941
#	50071
#	67746
#	82741
#	102439
#
# Disc length: 1606 seconds
#
# Revision: 0
# Processed by: cddbd v1.5.2PL0 Copyright (c) Steve Scherf et al.
# Submitted via: CDex 1.85
#
DISCID=4f064407
DTITLE=Coco O'Connor - This Ol' War
DYEAR=2017
DGENRE=Country
TTITLE0=Coco O'Connor - Daddy's Arms
TTITLE1=Coco O'Connor - The Devil, A Wounded Man, and Me 
TTITLE2=Coco O'Connor - Abilene
TTITLE3=Coco O'Connor - This Ol' War
TTITLE4=Coco O'Connor - South of Santa Fe
TTITLE5=Coco O'Connor - Crenshaw County
TTITLE6=Coco O'Connor - Free State of Winston
EXTD=YEAR: 2017
EXTT0=
EXTT1=
EXTT2=
EXTT3=
EXTT4=
EXTT5=
EXTT6=
PLAYORDER=
